<svg width="1231" height="326" viewBox="0 0 1231 326" fill="none" xmlns="http://www.w3.org/2000/svg">
<path fill-rule="evenodd" clip-rule="evenodd" d="M588.238 255V226.21L483.271 70H444V255H487V149L560.5 255H588.238Z" fill="#0E78F9"/>
<path fill-rule="evenodd" clip-rule="evenodd" d="M529 70V98.7896L633.967 255H673.238V70H630.238V176L556.738 70H529Z" fill="white"/>
<path d="M129.456 257.5C114.123 257.5 100.623 254.833 88.9561 249.5C77.2894 244 67.5394 236.75 59.7061 227.75C52.0394 218.583 46.2061 208.333 42.2061 197C38.3727 185.667 36.4561 174.083 36.4561 162.25C36.4561 150.583 38.3727 139.083 42.2061 127.75C46.2061 116.417 52.0394 106.25 59.7061 97.25C67.5394 88.25 77.2894 81.0833 88.9561 75.75C100.623 70.25 114.123 67.5 129.456 67.5C142.623 67.5 153.789 69.1667 162.956 72.5C172.289 75.6667 180.039 79.9167 186.206 85.25C192.539 90.4167 197.539 95.9167 201.206 101.75C205.039 107.417 207.873 112.833 209.706 118C211.539 123.167 212.706 127.417 213.206 130.75C213.873 134.083 214.206 135.75 214.206 135.75H171.456C171.456 135.75 170.956 134.25 169.956 131.25C169.123 128.25 167.289 124.833 164.456 121C161.789 117 157.706 113.5 152.206 110.5C146.706 107.5 139.289 106 129.956 106C119.123 106 110.039 108.75 102.706 114.25C95.5394 119.75 90.1227 126.833 86.4561 135.5C82.9561 144 81.2061 152.917 81.2061 162.25C81.2061 171.583 82.9561 180.583 86.4561 189.25C90.1227 197.917 95.5394 205 102.706 210.5C110.039 216 119.123 218.75 129.956 218.75C139.289 218.75 146.706 217.25 152.206 214.25C157.706 211.25 161.789 207.833 164.456 204C167.289 200.167 169.123 196.75 169.956 193.75C170.956 190.75 171.456 189.25 171.456 189.25H214.206C214.206 189.25 213.873 190.917 213.206 194.25C212.706 197.417 211.539 201.667 209.706 207C207.873 212.167 205.039 217.667 201.206 223.5C197.539 229.167 192.539 234.667 186.206 240C180.039 245.167 172.289 249.417 162.956 252.75C153.789 255.917 142.623 257.5 129.456 257.5ZM326.769 257.5C310.935 257.5 297.102 254.833 285.269 249.5C273.435 244 263.519 236.75 255.519 227.75C247.685 218.583 241.769 208.333 237.769 197C233.769 185.667 231.769 174.083 231.769 162.25C231.769 150.417 233.769 138.917 237.769 127.75C241.769 116.417 247.685 106.25 255.519 97.25C263.519 88.25 273.435 81.0833 285.269 75.75C297.102 70.25 310.935 67.5 326.769 67.5C342.435 67.5 356.185 70.25 368.019 75.75C379.852 81.0833 389.685 88.25 397.519 97.25C405.519 106.25 411.519 116.417 415.519 127.75C419.519 138.917 421.519 150.417 421.519 162.25C421.519 174.083 419.519 185.667 415.519 197C411.519 208.333 405.519 218.583 397.519 227.75C389.685 236.75 379.852 244 368.019 249.5C356.185 254.833 342.435 257.5 326.769 257.5ZM326.769 218.75C337.602 218.75 346.685 216 354.019 210.5C361.519 205 367.102 198 370.769 189.5C374.602 180.833 376.519 171.75 376.519 162.25C376.519 152.917 374.602 144 370.769 135.5C367.102 126.833 361.519 119.75 354.019 114.25C346.685 108.75 337.602 106 326.769 106C315.769 106 306.519 108.75 299.019 114.25C291.685 119.75 286.185 126.833 282.519 135.5C278.852 144 277.019 152.917 277.019 162.25C277.019 171.75 278.852 180.833 282.519 189.5C286.185 198 291.685 205 299.019 210.5C306.519 216 315.769 218.75 326.769 218.75Z" fill="#0E78F9"/>
<path d="M702.101 255V70H832.851V107.5H745.351V143.25H821.601V179H745.351V217.5H834.101V255H702.101ZM946.298 257.5C930.965 257.5 917.465 254.833 905.798 249.5C894.131 244 884.381 236.75 876.548 227.75C868.881 218.583 863.048 208.333 859.048 197C855.215 185.667 853.298 174.083 853.298 162.25C853.298 150.583 855.215 139.083 859.048 127.75C863.048 116.417 868.881 106.25 876.548 97.25C884.381 88.25 894.131 81.0833 905.798 75.75C917.465 70.25 930.965 67.5 946.298 67.5C959.465 67.5 970.631 69.1667 979.798 72.5C989.131 75.6667 996.881 79.9167 1003.05 85.25C1009.38 90.4167 1014.38 95.9167 1018.05 101.75C1021.88 107.417 1024.71 112.833 1026.55 118C1028.38 123.167 1029.55 127.417 1030.05 130.75C1030.71 134.083 1031.05 135.75 1031.05 135.75H988.298C988.298 135.75 987.798 134.25 986.798 131.25C985.965 128.25 984.131 124.833 981.298 121C978.631 117 974.548 113.5 969.048 110.5C963.548 107.5 956.131 106 946.798 106C935.965 106 926.881 108.75 919.548 114.25C912.381 119.75 906.965 126.833 903.298 135.5C899.798 144 898.048 152.917 898.048 162.25C898.048 171.583 899.798 180.583 903.298 189.25C906.965 197.917 912.381 205 919.548 210.5C926.881 216 935.965 218.75 946.798 218.75C956.131 218.75 963.548 217.25 969.048 214.25C974.548 211.25 978.631 207.833 981.298 204C984.131 200.167 985.965 196.75 986.798 193.75C987.798 190.75 988.298 189.25 988.298 189.25H1031.05C1031.05 189.25 1030.71 190.917 1030.05 194.25C1029.55 197.417 1028.38 201.667 1026.55 207C1024.71 212.167 1021.88 217.667 1018.05 223.5C1014.38 229.167 1009.38 234.667 1003.05 240C996.881 245.167 989.131 249.417 979.798 252.75C970.631 255.917 959.465 257.5 946.298 257.5ZM1095.84 255V107.5H1039.59V70H1195.59V107.5H1139.34V255H1095.84Z" fill="white"/>
</svg>
